<svg id="login" xmlns="http://www.w3.org/2000/svg" viewBox="0 0 150 190"><defs><style>.cls-1{fill:#444;}.cls-2{fill:#0d0d0d;}.cls-3{fill:#bebebe;}.cls-4{fill:#ffb8b8;}.cls-5{opacity:0.3;}.cls-6{fill:#939393;}.cls-7{fill:#fff;}.cls-8{fill:#d5975e;}.cls-8,.cls-9{fill-rule:evenodd;}.cls-9{fill:#c78958;}.cls-10{fill:none;stroke:#000;stroke-miterlimit:10;stroke-width:2px;}</style></defs><g id="body"><path class="cls-1" d="M99.43,35.34S101,15.65,114.62,14c11-1.36,20.33,6.16,19.14,17.11C132.22,45.18,118.85,49,118.85,49Z"/><path class="cls-2" d="M118.85,50.1a1.16,1.16,0,0,1-.31-2.27c.51-.15,12.63-3.75,14.07-16.86a13.76,13.76,0,0,0-3.93-11.55,16.71,16.71,0,0,0-13.92-4.3c-12.56,1.55-14.17,20.12-14.18,20.31a1.16,1.16,0,0,1-2.31-.18,39,39,0,0,1,2.56-10.4c2.91-7.13,7.63-11.28,13.65-12a19,19,0,0,1,15.83,4.94,16.07,16.07,0,0,1,4.6,13.45,21.45,21.45,0,0,1-8.48,15,23.67,23.67,0,0,1-7.27,3.84A1.1,1.1,0,0,1,118.85,50.1Z"/><path class="cls-3" d="M107.06,34.46s.86-11,8.46-11.89c6.12-.75,11.32,3.43,10.65,9.53-.86,7.84-8.3,9.93-8.3,9.93"/><path class="cls-4" d="M107.06,34.46l9,6.34L117.87,42s7.44-2.09,8.3-9.93c.67-6.1-4.53-10.28-10.66-9.53a7.63,7.63,0,0,0-5,2.74C107.5,28.84,107.06,34.46,107.06,34.46Z"/><path class="cls-2" d="M117.87,43.19a1.16,1.16,0,0,1-.31-2.27c.27-.08,6.7-2,7.46-9a7.14,7.14,0,0,0-2-6,8.77,8.77,0,0,0-7.32-2.25c-6.56.8-7.44,10.73-7.45,10.83a1.15,1.15,0,0,1-2.3-.18c0-.49,1-11.91,9.46-12.95a11.08,11.08,0,0,1,9.24,2.9,9.43,9.43,0,0,1,2.71,7.9c-.93,8.52-8.8,10.83-9.13,10.93A1.22,1.22,0,0,1,117.87,43.19Z"/><path class="cls-1" d="M49.23,35.34S47.68,15.65,34,14C23,12.62,13.7,20.14,14.9,31.09,16.43,45.18,29.8,49,29.8,49Z"/><path class="cls-2" d="M29.8,50.1a1.1,1.1,0,0,1-.31,0,23.67,23.67,0,0,1-7.27-3.84,21.41,21.41,0,0,1-8.47-15,16,16,0,0,1,4.6-13.45,19,19,0,0,1,15.83-4.94c6,.74,10.74,4.89,13.64,12a38.51,38.51,0,0,1,2.56,10.4,1.16,1.16,0,0,1-2.31.18c0-.19-1.63-18.76-14.17-20.31A16.73,16.73,0,0,0,20,19.42,13.75,13.75,0,0,0,16.05,31C17.48,44.13,30,47.8,30.12,47.83a1.16,1.16,0,0,1-.32,2.27Z"/><path class="cls-3" d="M41.59,34.46s-.86-11-8.45-11.89C27,21.82,21.82,26,22.48,32.1c.86,7.84,8.3,9.93,8.3,9.93"/><path class="cls-4" d="M41.59,34.46l-9,6.34L30.78,42s-7.44-2.09-8.3-9.93C21.82,26,27,21.82,33.14,22.57a7.61,7.61,0,0,1,5,2.74C41.15,28.84,41.59,34.46,41.59,34.46Z"/><path class="cls-2" d="M30.78,43.19a1.1,1.1,0,0,1-.31,0c-.34-.1-8.21-2.41-9.14-10.93A9.43,9.43,0,0,1,24,24.32a11.08,11.08,0,0,1,9.24-2.9c8.44,1,9.43,12.46,9.47,12.95a1.16,1.16,0,0,1-2.31.18c0-.11-.89-10-7.44-10.83A8.78,8.78,0,0,0,25.67,26a7.14,7.14,0,0,0-2,6c.76,6.94,7.2,8.87,7.47,9a1.16,1.16,0,0,1,.79,1.43A1.14,1.14,0,0,1,30.78,43.19Z"/><path class="cls-1" d="M116.15,138.57s4.25-7,9.65-7.73c6-.82,12.19,4,10.89,12.41-1.53,9.8-14.92,8.53-14.92,8.53Z"/><g class="cls-5"><path class="cls-2" d="M136.73,143h0c-1.31,10.11-15,8.82-15,8.82l-5.62-13.21a23.28,23.28,0,0,1,4.74-5.4l3,7.42a7.71,7.71,0,0,0,12.59,2.65Z"/></g><path class="cls-2" d="M123.48,153a16.91,16.91,0,0,1-1.82-.09,1.14,1.14,0,0,1-1-.69L115.08,139a1.18,1.18,0,0,1,.08-1.05c.18-.31,4.6-7.47,10.48-8.28a10.87,10.87,0,0,1,9.18,3.13,12.09,12.09,0,0,1,3,10.61C136.64,151.08,128.73,153,123.48,153Zm-.92-2.35c2.61.1,11.81-.07,13-7.6a9.81,9.81,0,0,0-2.37-8.63A8.56,8.56,0,0,0,126,132c-4,.55-7.46,5.18-8.5,6.7Z"/><path class="cls-1" d="M126.5,161.4h-104A197.87,197.87,0,0,1,28.11,139a326.45,326.45,0,0,1,11.31-30.66l.48-1.13c1.21-2.83,2.34-5.39,3.36-7.62,2.71-6,4.54-9.56,4.54-9.56h53.41s1.83,3.59,4.54,9.57c1,2.17,2.1,4.67,3.28,7.43.17.38.33.76.49,1.15A324.5,324.5,0,0,1,120.9,139,197.87,197.87,0,0,1,126.5,161.4Z"/><path class="cls-2" d="M126.5,162.56h-104a1.16,1.16,0,0,1-1.14-1.37c6.18-33.69,25.21-71.29,25.4-71.66a1.16,1.16,0,1,1,2.06,1c-.19.37-18.56,36.66-24.93,69.66H125.11c-6.37-33-24.74-69.29-24.93-69.66a1.16,1.16,0,1,1,2.06-1c.19.37,19.22,38,25.4,71.66a1.16,1.16,0,0,1-1.14,1.37Z"/><path class="cls-1" d="M44.08,154.88c-4.63-13.11-24.52-16.59-29.73,4.73C10.36,175.94,23,179.7,23,179.7H129.39s12.67-3.76,8.68-20.09c-5.2-21.32-25.09-17.84-29.72-4.73"/><path class="cls-2" d="M43.72,155a18.29,18.29,0,0,0-4.95-6.16,15.73,15.73,0,0,0-3.29-2,13.14,13.14,0,0,0-3.65-1.1,12.35,12.35,0,0,0-7.36,1.08,14,14,0,0,0-3.14,2.13,17.34,17.34,0,0,0-2.5,3,24.42,24.42,0,0,0-3.15,7.26,25.18,25.18,0,0,0-.78,3.92,19.08,19.08,0,0,0-.1,3.92,13.53,13.53,0,0,0,2.55,7.13,13.46,13.46,0,0,0,4.33,3.71c.28.15.57.29.85.42l.44.18.39.15-.33-.05H129.39l-.33.05a3.45,3.45,0,0,0,.4-.15c.14-.06.29-.11.43-.18.29-.13.58-.27.86-.42a13.82,13.82,0,0,0,1.62-1,12.71,12.71,0,0,0,2.7-2.68,13.46,13.46,0,0,0,2.56-7.13,19.08,19.08,0,0,0-.1-3.92,28.41,28.41,0,0,0-3.91-11.19,17.9,17.9,0,0,0-2.49-3,14.31,14.31,0,0,0-3.14-2.17,11.21,11.21,0,0,0-3.61-1.11,12.28,12.28,0,0,0-3.78.09,15.4,15.4,0,0,0-6.86,3.22,17.94,17.94,0,0,0-2.76,2.75,26.56,26.56,0,0,0-2.27,3.32h0a.4.4,0,0,1-.54.14.42.42,0,0,1-.19-.41,12.94,12.94,0,0,1,1.49-4.08c.19-.32.37-.65.58-.95l.65-.9.73-.83c.25-.29.53-.53.79-.79a15.06,15.06,0,0,1,12.49-3.88,14.07,14.07,0,0,1,4.3,1.34,16.33,16.33,0,0,1,3.69,2.56,20,20,0,0,1,2.85,3.39,31.07,31.07,0,0,1,4.28,12.19,22.17,22.17,0,0,1,.11,4.39,15.81,15.81,0,0,1-3,8.33,15.41,15.41,0,0,1-3.19,3.16,16.78,16.78,0,0,1-1.89,1.2c-.34.17-.67.34-1,.5l-.52.22c-.19.07-.35.13-.59.2a.81.81,0,0,1-.31,0H23a1.13,1.13,0,0,1-.32,0l-.58-.2-.53-.22-1-.5a16.78,16.78,0,0,1-1.89-1.2,15.17,15.17,0,0,1-3.19-3.16,15.81,15.81,0,0,1-3-8.33,21.44,21.44,0,0,1,.11-4.39,28.65,28.65,0,0,1,.84-4.24l.29-1c.09-.34.23-.68.34-1l.35-1,.42-1a24.57,24.57,0,0,1,2-3.87c.43-.6.83-1.22,1.32-1.78s1-1.1,1.52-1.64a16.72,16.72,0,0,1,3.68-2.59,14.32,14.32,0,0,1,8.85-1.27,15.35,15.35,0,0,1,7.89,4,14.85,14.85,0,0,1,4.32,7.46.39.39,0,0,1-.29.47.4.4,0,0,1-.43-.2Z"/><path class="cls-6" d="M130.4,43.93c-.05-.22-.1-.44-.17-.65h.06Z"/><path class="cls-1" d="M74.33,110.92c27.36,0,42.44-12,49.54-20.12A21,21,0,0,0,129,76.08c-.7-16.16-5-25.71-13.16-38.13a49.7,49.7,0,0,0-83,0c-8.19,12.42-12.45,22-13.15,38.13A21,21,0,0,0,24.78,90.8C31.88,99,47,110.93,74.33,110.92Z"/><path class="cls-7" d="M88.3,83.6c0,6.11-6.27,11.07-14,11.07s-14-5-14-11.07,6.27-9,14-9S88.3,77.5,88.3,83.6Z"/><path d="M79.76,79.65c0,3-5.46,4.38-5.46,4.38s-5.47-1.36-5.47-4.38c0-1.54,5.47-1.54,5.47-1.54S79.76,78.11,79.76,79.65Z"/><path class="cls-7" d="M76.68,79.35c0,.78-1.36,1.14-2.36,1.14S72,80.13,72,79.35c0-.4,2.36-.4,2.36-.4S76.68,79,76.68,79.35Z"/><path class="cls-2" d="M95,107.92a91.42,91.42,0,0,0,15.55-7.51,61.32,61.32,0,0,0,6.92-5.06c.54-.46,1.08-.93,1.6-1.42s1-1,1.55-1.47,1-1,1.49-1.54l.72-.79c.24-.26.45-.53.68-.79a19.75,19.75,0,0,0,4.3-11.43c0-.7,0-1.37,0-2.09l-.13-2.16a78.78,78.78,0,0,0-1.06-8.56,56.76,56.76,0,0,0-2.22-8.3,74.52,74.52,0,0,0-7.73-15.4c-.37-.62-.78-1.22-1.17-1.83l-.59-.92-.62-.87L113.05,36c-.44-.57-.89-1.12-1.34-1.68l-.67-.83-.72-.79-1.45-1.58-1.55-1.48c-.26-.24-.51-.5-.78-.73l-.82-.69A47.64,47.64,0,0,0,91,19.68L89,19c-.33-.12-.68-.2-1-.3l-1-.28-1-.28-1-.23c-.7-.14-1.39-.31-2.09-.42a53,53,0,0,0-8.53-.73,54,54,0,0,0-8.52.76,53.31,53.31,0,0,0-8.26,2.24c-.67.24-1.32.53-2,.79l-1,.41-1,.47-1,.46c-.32.16-.65.3-1,.48l-1.87,1.05-.46.26L48.8,24l-.9.58c-.6.39-1.21.76-1.77,1.2L44.41,27l-1.64,1.37c-.27.23-.55.45-.82.69l-.77.74c-.51.5-1,1-1.54,1.49-1,1.06-2,2.07-2.83,3.21l-.68.83c-.22.29-.46.55-.65.85L34.24,38c-.42.57-.81,1.19-1.2,1.8s-.8,1.21-1.18,1.83A74,74,0,0,0,24.18,57,59.39,59.39,0,0,0,22,65.31a76.81,76.81,0,0,0-1,8.57L20.83,76l0,1c0,.34,0,.69,0,1a20.78,20.78,0,0,0,.65,4.08,19.59,19.59,0,0,0,3.74,7.32c.42.53.92,1.07,1.39,1.6s1,1,1.49,1.54l.77.75.79.73c.51.49,1.07.94,1.61,1.41s1.11.9,1.67,1.35l1.73,1.27c.59.39,1.18.8,1.78,1.19s1.21.76,1.83,1.13a80.69,80.69,0,0,0,7.6,4c2.61,1.21,5.27,2.31,8,3.5h0a.38.38,0,0,1,.2.51.39.39,0,0,1-.4.23A37.94,37.94,0,0,1,45,106.54a45.79,45.79,0,0,1-8-3.94c-.64-.39-1.26-.81-1.88-1.22s-1.22-.85-1.83-1.28l-1.79-1.35c-.58-.48-1.16-.94-1.73-1.43s-1.14-1-1.68-1.48l-.82-.76-.8-.78c-.54-.52-1-1.08-1.56-1.61s-1-1.1-1.49-1.71a22.19,22.19,0,0,1-4.9-12.74c0-.38,0-.77,0-1.15s0-.78,0-1.15l.13-2.22a77.64,77.64,0,0,1,1.07-8.83A61.35,61.35,0,0,1,22,56.25a76.1,76.1,0,0,1,7.91-15.9c.39-.63.79-1.24,1.19-1.86s.8-1.24,1.24-1.84l1.29-1.83c.21-.31.46-.59.69-.89l.7-.87c.91-1.19,2-2.25,3-3.36.52-.54,1.08-1,1.61-1.56l.81-.78c.28-.25.57-.48.86-.72.57-.48,1.14-1,1.72-1.44l1.8-1.34c.59-.46,1.23-.85,1.86-1.26l.94-.61.47-.3.49-.28,2-1.09c.32-.19.67-.34,1-.51l1-.48,1-.49,1-.43c.69-.28,1.38-.58,2.08-.83a55,55,0,0,1,8.65-2.35,58,58,0,0,1,8.92-.8,55.69,55.69,0,0,1,8.93.77c.74.12,1.47.3,2.2.44l1.1.24,1.08.29,1.08.3c.36.1.72.19,1.07.31l2.13.72a50.18,50.18,0,0,1,15.42,9l.86.72c.28.25.55.52.82.77l1.62,1.55L112,31.18c.25.28.51.55.75.83l.71.87c.47.59.94,1.16,1.4,1.75l1.29,1.83.65.92.6.93c.4.61.81,1.22,1.19,1.85a77.36,77.36,0,0,1,8,15.88,60.34,60.34,0,0,1,2.3,8.63A80.05,80.05,0,0,1,130,73.5l.13,2.22c0,.74,0,1.53,0,2.29a22.83,22.83,0,0,1-.68,4.57,22.27,22.27,0,0,1-4.06,8.25c-.25.29-.49.61-.74.89l-.74.84c-.51.55-1,1.1-1.54,1.63l-.79.79c-.27.27-.55.51-.82.77-.54.51-1.11,1-1.68,1.49s-1.15,1-1.73,1.42-1.19.91-1.79,1.35l-1.85,1.26c-.63.4-1.26.8-1.9,1.19a48.56,48.56,0,0,1-16.6,6.21.39.39,0,0,1-.21-.75Z"/><path class="cls-1" d="M60.6,19.16s8-11.22,17.56-12.85c7.91-1.35.58,7.15.58,7.15s7.4-5.76,10.79-3.27-3.89,6-1.78,8.59"/><path class="cls-2" d="M60.6,20.32a1.2,1.2,0,0,1-.67-.21,1.15,1.15,0,0,1-.27-1.61C60,18,68,6.86,78,5.17c.9-.16,3.65-.62,4.69,1.22a3.91,3.91,0,0,1-.16,3.37c2.54-1.22,5.61-2,7.72-.5a3.12,3.12,0,0,1,1.34,2.06c.22,1.5-.78,2.84-1.74,4.13-1.09,1.46-1.52,2.18-1.18,2.59a1.16,1.16,0,1,1-1.78,1.48c-1.56-1.89,0-3.95,1.1-5.46.62-.82,1.39-1.85,1.31-2.4a.93.93,0,0,0-.43-.53c-2.19-1.61-7.65,1.89-9.39,3.24a1.17,1.17,0,0,1-1.55-.12,1.15,1.15,0,0,1,0-1.55c1.74-2,3.12-4.58,2.78-5.17,0-.09-.59-.37-2.29-.08C69.35,9,61.62,19.73,61.54,19.83A1.14,1.14,0,0,1,60.6,20.32Z"/><path class="cls-7" d="M103.51,115.1a2.51,2.51,0,0,1,0-.39Z"/><path class="cls-7" d="M50.78,112.75a60.32,60.32,0,0,1,7.06,1.52c2.31.66,4.61,1.37,6.86,2.24a56.6,56.6,0,0,1,6.65,3,31.34,31.34,0,0,1,3.2,2,14.4,14.4,0,0,1,3,2.83h-3.2a22.4,22.4,0,0,1,5.24-4.92,31.3,31.3,0,0,1,6.16-3.24,45.09,45.09,0,0,1,6.51-2,47.12,47.12,0,0,1,6.67-1L92.88,116c-2,.92-3.93,1.91-5.8,3a29.86,29.86,0,0,0-9.52,7.77,2,2,0,0,1-2.79.41,2,2,0,0,1-.37-.35l0-.06a12,12,0,0,0-2.18-2c-.87-.65-1.79-1.29-2.77-1.88-1.93-1.21-4-2.32-6-3.43s-4.16-2.21-6.27-3.28S52.88,114,50.78,112.75Z"/></g><g id="board"><path class="cls-8" d="M20.92,101.08l108.41-7.91L130.48,109l-9.31,2.08,9.41-.78,2,26.94-10.75,1.88,10.93.25.1,1.42-6.29,1.62,6.44.47.47,6.39L25,157.17l-1-14.28,16.63-.83-14.45-3.45,4.92-2-7.6-.72L21.9,114.25l9.19-2.08s-4.64-.15-9.38-.28Z"/><path class="cls-9" d="M127.76,93.29l1.57-.12L130.48,109l-3.66.81c.64-5.66.87-11.44.94-16.52Zm-1,17.34,3.86-.33,2,26.94-10.75,1.88,10.93.25.1,1.42-6.29,1.62,6.44.47.47,6.39L25,157.17l-1-14.28,16.63-.83-14.45-3.45,4.92-2-7.6-.72-.2-2.43c14.72,1.79,81.1,9.18,93.59,1.45,5.81-3.58,8.6-13.62,9.85-24.26Z"/><path class="cls-10" d="M133,142.88l-6.44-.47,6.29-1.62-.1-1.42-10.93-.25,10.75-1.88-2-26.94-9.41.78,9.31-2.08-1.15-15.83L20.92,101.08l.79,10.81c4.74.13,9.38.28,9.38.28l-9.19,2.08,1.4,19.19h0l.2,2.43,7.6.72-4.92,2,14.45,3.45L24,142.89l1,14.28,108.44-7.9Z"/><path d="M46.6,114.11A36,36,0,0,1,52,117.46a25.78,25.78,0,0,0,2.69-2.14l-4.31.3c-1,.08-1.56-.56-1.66-1.9a1.77,1.77,0,0,1,1.21-2l8-.56A4.38,4.38,0,0,1,61,112.18a17.24,17.24,0,0,0,2.38,2.14,3,3,0,0,1,.32-1,27,27,0,0,0,2.11-2.71,2.14,2.14,0,0,1,1.07-.46c1.33.15,2,.71,2.11,1.69,0,.36-.58,1.36-1.77,3.07-.45.71-.85,1.13-1.19,1.22a15.93,15.93,0,0,0,2.35,1.22.09.09,0,0,1,0-.07,2.74,2.74,0,0,1,.36-1.48,32.6,32.6,0,0,0,3-3.69,2.17,2.17,0,0,1,1.14-.5c1.4.18,2.15.77,2.22,1.79,0,.43-.77,1.66-2.33,3.75a4.52,4.52,0,0,1-1.28,1.37,22.36,22.36,0,0,0,3.54.89,1.72,1.72,0,0,1,1.34,1.46c.12,1.7-.49,2.59-1.76,2.68a5,5,0,0,1-1.07-.06,25.59,25.59,0,0,1-6.88-2.5c0,1.2-.41,1.8-1.26,1.86l-11.3.8c-.88.06-1.39-.58-1.55-1.92-3.46,2.34-6,3.66-7.64,3.95-1.06.07-1.76-.77-2-2.56a1.69,1.69,0,0,1,.72-1.36,33.94,33.94,0,0,0,4.71-2c-1-.6-2.21-1.26-3.51-2-.75-.62-1.18-1.12-1.21-1.51a3.1,3.1,0,0,1,2-2.31A1.56,1.56,0,0,1,46.6,114.11ZM69,134.19A16.33,16.33,0,0,1,68.3,138l8.12-.57c.68.1,1.08.71,1.16,1.91s-.24,2-1,2.09l-30.83,2.17c-.92.06-1.4-.65-1.5-2.06a1.7,1.7,0,0,1,.93-1.91l7.95-.56A23.41,23.41,0,0,0,52,136a1.82,1.82,0,0,1-.15-.55l-2.47.17c-1.84.06-2.79-.9-2.93-2.88L46.09,128a2.71,2.71,0,0,1,2.45-2.55l22.17-1.56c2.07.07,3.16,1,3.28,2.71l.28,4a2.83,2.83,0,0,1-2.85,3.4Zm-18.44-4.42.07,1.06a.77.77,0,0,0,.68.63L69,130.21c.56,0,.87-.24.84-.63l-.08-1.09A.69.69,0,0,0,69,128l-17.8,1.26A.86.86,0,0,0,50.58,129.77Zm6.77,9,6.29-.44a7,7,0,0,1,.2-.69,14.74,14.74,0,0,0,.87-3.18l-8.75.62A23.56,23.56,0,0,1,57.35,138.8ZM63.3,119a40,40,0,0,1-4.16-3.18,1,1,0,0,1-.13.11,25.85,25.85,0,0,1-3.62,3.63Z"/><path d="M101.48,108.23c1.48-.1,2.29.34,2.43,1.25q4.2,17.33,14.91,25.39a1.87,1.87,0,0,1,.71,1.44,2.71,2.71,0,0,1-1.94,2.76,3.11,3.11,0,0,1-1.15-.16c-5.21-2.51-9.9-8.64-14.07-18.5a68.61,68.61,0,0,1-2.72,7.82,39.2,39.2,0,0,1-7.51,11.29A3.41,3.41,0,0,1,90,140.66c-1.38.1-2.39-.68-3.07-2.26a2.28,2.28,0,0,1,.67-1.54,42,42,0,0,0,12-23.46,2.29,2.29,0,0,0-1.19-.27l-6.7.55c-1.06.07-1.68-.7-1.91-2.36-.06-1.41.42-2.19,1.4-2.36Z"/><g class="cls-5"><path class="cls-2" d="M134.37,107.27l-.61,24a5.67,5.67,0,0,1,0,.58c-1.61-1.09-7.32,1.34-12-2a5.49,5.49,0,0,1-1.83-2.14c-2.07-4.32-1-7.31-1-7.31a11.37,11.37,0,0,1-1.4-8.35,4.68,4.68,0,0,1,4.38-3.91A5.23,5.23,0,0,1,125,105C128.27,103.73,131.81,105.35,134.37,107.27Z"/></g><path class="cls-1" d="M138.9,114.39h0c1.87,9.15-5.29,16-5.29,16,.5-3.91-5.91.45-11.23-3.76a5.92,5.92,0,0,1-1.7-2.18,9.29,9.29,0,0,1-.73-4.64s-2-4.15-1.53-6.79a6.2,6.2,0,0,1,3.45-4.87s1.12-3.2,3.31-4c4.58-1.77,9.3,1.44,10.83,3.66A18,18,0,0,1,138.9,114.39Z"/><g class="cls-5"><path class="cls-2" d="M138.9,114.39c1.87,9.15-5.29,16-5.29,16,.5-3.91-5.91.45-11.23-3.76a5.92,5.92,0,0,1-1.7-2.18c2,1.54,4.6,2.27,8.14,1.17C137,123.13,138.64,117.45,138.9,114.39Z"/></g><path class="cls-2" d="M133.94,131.54a1.1,1.1,0,0,1-.85-.07,1.16,1.16,0,0,1-.63-1.18,1.28,1.28,0,0,0,0-.39,7.79,7.79,0,0,0-2.05-.08c-2.27.08-5.68.2-8.76-2.23s-3-6.32-2.89-7.53c-.49-1.09-1.93-4.6-1.49-7.18a7.54,7.54,0,0,1,3.68-5.52c.44-1,1.66-3.45,3.81-4.28,5.24-2,10.53,1.66,12.19,4.08h0a17.4,17.4,0,0,1,2.07,17,22,22,0,0,1-4.62,7.13A1.18,1.18,0,0,1,133.94,131.54Zm-1.48-1.68Zm-6.39-24.79-.47.16c-1.38.54-2.37,2.6-2.64,3.35a1.16,1.16,0,0,1-.67.7,5.08,5.08,0,0,0-2.73,4c-.32,1.87.93,5,1.44,6.1a1.21,1.21,0,0,1,.1.65s-.45,3.82,2,5.76,5.08,1.81,7.23,1.74c1.53-.05,2.86-.1,3.72.68,2.45-3.09,7.1-10.86,1-19.71h0C133.84,106.71,129.92,103.93,126.07,105.07Z"/><g class="cls-5"><path class="cls-2" d="M20.47,111.29l1.43,24a5.41,5.41,0,0,0,.07.58c1.57-1.14,7.36,1.09,12-2.37a5.46,5.46,0,0,0,1.75-2.2c1.92-4.39.71-7.33.71-7.33a11.41,11.41,0,0,0,1.11-8.41A4.67,4.67,0,0,0,33,111.79a5.25,5.25,0,0,0-3.22-3.13C26.45,107.54,23,109.29,20.47,111.29Z"/></g><path class="cls-1" d="M16.18,118.56h0C14.63,127.77,22,134.42,22,134.42c-.63-3.89,5.92.25,11.1-4.14a6,6,0,0,0,1.62-2.23,9.36,9.36,0,0,0,.57-4.67s1.83-4.21,1.3-6.84A6.22,6.22,0,0,0,33,111.79s-1.23-3.16-3.45-3.93c-4.63-1.6-9.24,1.76-10.7,4A18,18,0,0,0,16.18,118.56Z"/><g class="cls-5"><path class="cls-2" d="M16.18,118.56C14.63,127.77,22,134.42,22,134.42c-.63-3.89,5.92.25,11.1-4.14a6,6,0,0,0,1.62-2.23c-1.9,1.6-4.52,2.42-8.09,1.44C18.38,127.23,16.55,121.61,16.18,118.56Z"/></g><path class="cls-2" d="M21.25,135.28a22.16,22.16,0,0,1-4.86-7,17.4,17.4,0,0,1,1.48-17h0c1.58-2.48,6.74-6.34,12.05-4.5,2.18.76,3.48,3.13,4,4.15a7.57,7.57,0,0,1,3.86,5.39c.52,2.57-.79,6.12-1.24,7.23.12,1.2.28,5.15-2.64,7.62s-6.41,2.54-8.67,2.53a7.52,7.52,0,0,0-2,.15,1.11,1.11,0,0,0,0,.39,1.17,1.17,0,0,1-1.44,1.31A1.32,1.32,0,0,1,21.25,135.28Zm1.9-1.48Zm-3.33-21.28h0c-5.78,9.06-.87,16.67,1.69,19.67.83-.81,2.16-.81,3.68-.81,2.16,0,4.84,0,7.18-2s1.8-5.79,1.8-5.83a1.11,1.11,0,0,1,.08-.65c.47-1.08,1.6-4.29,1.23-6.15a5.13,5.13,0,0,0-2.87-3.89,1.14,1.14,0,0,1-.69-.67c-.3-.74-1.36-2.77-2.76-3.25a4.42,4.42,0,0,0-.48-.15C24.81,107.8,21,110.71,19.82,112.52Z"/></g><g id="foot"><path class="cls-1" d="M115.45,163.47c.87-8.12,3.91-13.89,8.8-14.91a7.08,7.08,0,0,1,5.28,1.2s2.17-2.66,6.42-1.4c2.46.73,3.88,3.7,3.88,3.7a4.85,4.85,0,0,1,4.18,2.08c2.13,2.65,2.14,7,1.71,10.08-2.71,19.62-19.93,19.62-26,19.62H30.37c-6.06,0-23.28,0-26-19.62-.43-3.09-.42-7.43,1.7-10.08a4.87,4.87,0,0,1,4.19-2.08s1.42-3,3.87-3.7c4.26-1.26,6.43,1.4,6.43,1.4a7.08,7.08,0,0,1,5.28-1.2c4.89,1,7.93,6.79,8.8,14.91"/><ellipse class="cls-4" cx="19.28" cy="169.24" rx="6.3" ry="7.26" transform="translate(-9.34 1.33) rotate(-3.17)"/><ellipse class="cls-4" cx="10.56" cy="162.3" rx="2.4" ry="2.81" transform="translate(-23.05 3.17) rotate(-8.2)"/><ellipse class="cls-4" cx="16.86" cy="157.13" rx="2.4" ry="2.81" transform="translate(-22.24 4.01) rotate(-8.2)"/><ellipse class="cls-4" cx="24.7" cy="158.33" rx="2.4" ry="2.81" transform="translate(-22.34 5.14) rotate(-8.2)"/><ellipse class="cls-4" cx="130.46" cy="169.24" rx="7.26" ry="6.3" transform="translate(-45.75 290.13) rotate(-86.83)"/><ellipse class="cls-4" cx="139.18" cy="162.3" rx="2.81" ry="2.4" transform="translate(-41.32 276.9) rotate(-81.8)"/><ellipse class="cls-4" cx="132.87" cy="157.13" rx="2.81" ry="2.4" transform="matrix(0.14, -0.99, 0.99, 0.14, -41.61, 266.23)"/><ellipse class="cls-4" cx="125.04" cy="158.33" rx="2.81" ry="2.4" transform="translate(-49.51 259.51) rotate(-81.8)"/><g class="cls-5"><path class="cls-2" d="M145.72,164.22c-2.71,19.62-19.93,19.62-26,19.62H30.37c-6.06,0-23.28,0-26-19.62a19.22,19.22,0,0,1,.14-6.66c3.13,18.68,13.09,21.54,21.18,20.7,5.43-.57,8.05-2.1,12.27-3.93,3.61-1.57,5.14-3,6.17-3.05,1.33,0,6.1,4.29,15.13,5H93.12c9-.67,13.8-5,15.13-5,1,0,2.57,1.48,6.17,3.05a43.79,43.79,0,0,0,10.19,3.27c9.22,1.57,18.12-3,21-20A19,19,0,0,1,145.72,164.22Z"/></g><path class="cls-2" d="M115.06,163.43a25.69,25.69,0,0,1,.69-6.09c.13-.5.24-1,.41-1.51l.24-.74.3-.74c.18-.49.43-1,.66-1.45.12-.23.27-.46.4-.7a7.15,7.15,0,0,1,.44-.68,10.42,10.42,0,0,1,2.25-2.45,8.25,8.25,0,0,1,3.06-1.57,7.28,7.28,0,0,1,1.76-.3,8.14,8.14,0,0,1,1.78.16,8.77,8.77,0,0,1,1.67.53q.39.18.78.39l.38.22.19.12.1.07.11.09-1.71.2.11-.13.1-.1.18-.18.37-.31a6.81,6.81,0,0,1,.79-.53,7.08,7.08,0,0,1,1.74-.71,7.86,7.86,0,0,1,3.64,0c.29.08.57.14.87.23l.47.17.44.22a7,7,0,0,1,1.51,1.09A9.77,9.77,0,0,1,140,150c.17.23.33.47.49.72s.29.48.44.79l-1.23-.66.32,0h.26l.48,0a5.69,5.69,0,0,1,.93.2,6.27,6.27,0,0,1,1.67.8,7.76,7.76,0,0,1,2.35,2.63,10.83,10.83,0,0,1,1.12,3.17,17.54,17.54,0,0,1,.31,3.21,23.84,23.84,0,0,1-.2,3.16c-.06.52-.16,1-.24,1.54s-.19,1-.31,1.53a25.4,25.4,0,0,1-2.1,5.93,20.51,20.51,0,0,1-3.7,5.18A21,21,0,0,1,135.4,182a30.07,30.07,0,0,1-12.09,2.94c-1,0-2.06.07-3.07.07H29.86c-1,0-2,0-3.07-.07A30.07,30.07,0,0,1,14.7,182a21,21,0,0,1-5.15-3.73,20.55,20.55,0,0,1-3.71-5.18,25.83,25.83,0,0,1-2.09-5.93c-.12-.51-.24-1-.31-1.53s-.18-1-.25-1.54A23.83,23.83,0,0,1,3,160.92a17.54,17.54,0,0,1,.31-3.21,10.83,10.83,0,0,1,1.12-3.17,7.67,7.67,0,0,1,2.36-2.62,6,6,0,0,1,1.66-.79,4.81,4.81,0,0,1,.93-.2l.48,0h.26l.31,0-1.2.65c.15-.31.29-.54.44-.79s.32-.48.49-.72a10.34,10.34,0,0,1,1.17-1.32,7,7,0,0,1,1.51-1.08c.15-.07.29-.15.44-.21l.47-.17c.29-.09.57-.15.86-.22a7.83,7.83,0,0,1,3.6,0,7.39,7.39,0,0,1,1.73.7c.26.16.53.33.78.52l.37.31.18.17.09.1.11.13-1.61-.19.4-.28.38-.22a7.85,7.85,0,0,1,.77-.38,8.61,8.61,0,0,1,1.65-.54,8,8,0,0,1,1.77-.19,7.34,7.34,0,0,1,1.76.26,8.34,8.34,0,0,1,3.1,1.53A10.36,10.36,0,0,1,32,151.46a5.1,5.1,0,0,1,.45.69c.14.23.28.46.41.7a15.91,15.91,0,0,1,.68,1.45l.29.74.25.75c.18.49.28,1,.42,1.51a22.31,22.31,0,0,1,.55,6.13.39.39,0,0,1-.76.08c-.53-1.93-1.05-3.83-1.72-5.64-.17-.45-.34-.9-.53-1.33l-.28-.66-.31-.63c-.2-.43-.44-.82-.66-1.23-.12-.2-.25-.39-.38-.58a5.12,5.12,0,0,0-.39-.56l-.41-.53-.45-.49a4,4,0,0,0-.47-.45,3.89,3.89,0,0,0-.49-.42c-.18-.12-.34-.26-.52-.37l-.54-.32a7.24,7.24,0,0,0-1.17-.45,4.44,4.44,0,0,0-1.19-.21,6.17,6.17,0,0,0-1.21.09,7.7,7.7,0,0,0-1.21.38c-.19.08-.38.18-.57.28l-.27.15-.22.15-1.61-.19,0,0,0,0-.1-.1a2.11,2.11,0,0,0-.23-.19,3.7,3.7,0,0,0-.5-.35,5.21,5.21,0,0,0-1.15-.46,5.36,5.36,0,0,0-2.55,0l-.64.16-.27.1c-.09,0-.17.08-.26.12a4.56,4.56,0,0,0-1,.73,6.61,6.61,0,0,0-.89,1l-.39.56c-.11.19-.24.41-.31.57a1.2,1.2,0,0,1-1.07.65H9.93l-.27,0a3.49,3.49,0,0,0-.54.12,4,4,0,0,0-1,.5,5.35,5.35,0,0,0-1.63,1.83,8.45,8.45,0,0,0-.87,2.49,14.17,14.17,0,0,0-.26,2.78,19.55,19.55,0,0,0,.17,2.85c.06.47.15,1,.23,1.43s.18.95.28,1.42A23.58,23.58,0,0,0,7.91,172a17.92,17.92,0,0,0,3.28,4.58,18.42,18.42,0,0,0,4.56,3.31,27.71,27.71,0,0,0,11.16,2.68c1,.06,2,.07,3,.08h90.36c1,0,2,0,3-.08a27.63,27.63,0,0,0,11.16-2.68,17.56,17.56,0,0,0,7.85-7.89,23.09,23.09,0,0,0,1.9-5.4c.11-.47.22-.94.29-1.42s.17-1,.23-1.43a21.06,21.06,0,0,0,.17-2.85,15.88,15.88,0,0,0-.26-2.78,8.45,8.45,0,0,0-.87-2.49,5.35,5.35,0,0,0-1.64-1.82,3.48,3.48,0,0,0-1-.49,3.61,3.61,0,0,0-.55-.12l-.26,0h-.31a1.25,1.25,0,0,1-1.1-.66,4.85,4.85,0,0,0-.32-.56q-.18-.28-.39-.57a7,7,0,0,0-.88-1,4.54,4.54,0,0,0-1-.7l-.26-.13-.26-.09-.64-.15a5.48,5.48,0,0,0-2.52,0,4.45,4.45,0,0,0-1.13.45c-.17.11-.34.22-.5.34l-.22.19-.09.09,0,0s0,0,0,0l-1.72.2-.09-.06-.12-.08-.27-.16-.56-.28a7.47,7.47,0,0,0-1.19-.38,6.11,6.11,0,0,0-1.2-.12,4.46,4.46,0,0,0-1.19.18,7.61,7.61,0,0,0-4.14,3,19.23,19.23,0,0,0-2.59,5,47.37,47.37,0,0,0-1.59,5.67.39.39,0,0,1-.46.3A.41.41,0,0,1,115.06,163.43Z"/></g><g id="lefteye"><circle cx="55.63" cy="62.71" r="6.27"/><circle class="cls-7" cx="56.96" cy="60.62" r="2.28"/></g><g id="righteye"><circle cx="92.48" cy="61.95" r="6.27"/><circle class="cls-7" cx="93.81" cy="59.86" r="2.28"/></g></svg>