<svg xmlns="http://www.w3.org/2000/svg" viewBox="0 0 150 190"><defs><style>.cls-1{opacity:0.2;}.cls-2{fill:#000072;}.cls-3{fill:#444;}.cls-4{fill:#353535;}.cls-5{fill:#0d0d0d;}.cls-6{fill:#fff;}.cls-7{fill:#ffb8b8;}.cls-8{fill:#d5975e;}.cls-8,.cls-9{fill-rule:evenodd;}.cls-9{fill:#c78958;}.cls-10{fill:none;stroke:#000;stroke-miterlimit:10;stroke-width:2px;}.cls-11{opacity:0.3;}</style></defs><g id="signin"><g id="body"><g class="cls-1"><ellipse class="cls-2" cx="77.12" cy="178.93" rx="59.33" ry="7.25"/></g><path class="cls-3" d="M125.42,166.69a9.15,9.15,0,0,1-2.57-6.5,32.92,32.92,0,0,0-5.94-19.57,12.31,12.31,0,0,1-2.18-8.46c1.42-12.59-1-20.07-1.88-22.18a25.55,25.55,0,0,1-4.4-5.92c-1.1-2.63-2.21-5.25-3.32-7.88-.68-4.89-1.07-9.65-1.46-14.45-4,1.37-7.78,2.51-11.2,3.43a107.45,107.45,0,0,1-23.53,3.56c-9,.39-25,3.57-30.67,20.62,0,0-3.78,7.62-2.21,22.34a18,18,0,0,1-1.5,9.48,41.32,41.32,0,0,0-3.36,20.25,7,7,0,0,1-1.4,4.68,13.15,13.15,0,0,0-2.14,4.13,7.92,7.92,0,0,0,1.65,7.71,5.75,5.75,0,0,0,4.41,2H52a6.63,6.63,0,0,0,6.61-6.12c.48-5.9,2-14.38,7.06-17.54a81,81,0,0,0,9.76.66,81,81,0,0,0,9.76-.66c5,3.14,8,11.57,9.57,17.47a8.36,8.36,0,0,0,8.09,6.19h19.94a6.2,6.2,0,0,0,5.93-4.14,6.74,6.74,0,0,0-.28-4.77A14.64,14.64,0,0,0,125.42,166.69Z"/><path class="cls-4" d="M128.73,175.75a6.2,6.2,0,0,1-5.95,4.22H102.84a8.36,8.36,0,0,1-8.09-6.19c-1.56-5.9-4.58-14.33-9.57-17.47a81,81,0,0,1-9.76.66,81,81,0,0,1-9.76-.66c-5,3.16-6.58,11.64-7.06,17.54A6.63,6.63,0,0,1,52,180H33.72a5.75,5.75,0,0,1-4.41-2,7.92,7.92,0,0,1-1.65-7.71A23.87,23.87,0,0,0,38.13,174a13.2,13.2,0,0,0,13.74-8.53,25.3,25.3,0,0,1,1.46-3.13,5.86,5.86,0,0,0-.4-6.29,14.08,14.08,0,0,1-2.29-5,1.69,1.69,0,0,1,2-2.06c7.09,1.55,28.71,5.37,47.89-.58a1.69,1.69,0,0,1,2,2.38A19.68,19.68,0,0,1,99,155.49a5.92,5.92,0,0,0-1.16,6.68c.31.68.64,1.41,1,2.17a14.85,14.85,0,0,0,11.75,8.83c6.41.83,14.33,1,17.87-2.11A6.74,6.74,0,0,1,128.73,175.75Z"/><path class="cls-5" d="M124.21,160.21A34.22,34.22,0,0,0,118,139.84a11,11,0,0,1-2-7.53c1.13-10-.12-16.83-1.17-20.48a24.71,24.71,0,0,1-4.88-5.22c.28.66.94,2.23,1.25,3.16a.87.87,0,0,0,.07.17c0,.08,3.65,7.68,2,22.07a13.69,13.69,0,0,0,2.43,9.4,31.48,31.48,0,0,1,5.68,18.76,10.61,10.61,0,0,0,3,7.47c1.88,2,3.93,4.89,3,7.76a4.81,4.81,0,0,1-4.63,3.21H102.84a7,7,0,0,1-6.77-5.18c-1.72-6.5-4.89-15-10.16-18.28a1.44,1.44,0,0,0-.73-.21L85,155a83.14,83.14,0,0,1-9.58.64,83.14,83.14,0,0,1-9.58-.64,1.33,1.33,0,0,0-.91.19c-5.39,3.4-7.16,12-7.69,18.59A5.3,5.3,0,0,1,52,178.61H33.72a4.37,4.37,0,0,1-3.36-1.55c-3.08-3.7-1.41-7.56.53-10.15a8.34,8.34,0,0,0,1.67-5.6,39.92,39.92,0,0,1,3.24-19.58,19.36,19.36,0,0,0,1.61-10.19c-1.5-14.08,2-21.52,2.08-21.59a1.34,1.34,0,0,0,.07-.18C45,93.51,60.32,90.46,69,90.08a109.64,109.64,0,0,0,23.83-3.6c3.32-.9,7-2,11-3.35-.07-.93-.15-1.87-.23-2.8-4.1,1.41-8,2.58-11.44,3.52a106.57,106.57,0,0,1-23.22,3.51c-9.37.4-26,3.73-31.89,21.47-.46,1-3.82,8.75-2.3,23a16.76,16.76,0,0,1-1.37,8.76,42.57,42.57,0,0,0-3.49,20.92,5.68,5.68,0,0,1-1.13,3.77c-3.53,4.7-3.69,9.63-.44,13.52a7.06,7.06,0,0,0,5.45,2.54H52A8,8,0,0,0,60,174c.38-4.76,1.68-13.07,6-16.23a82.81,82.81,0,0,0,9.43.6,82.63,82.63,0,0,0,9.43-.6c3.37,2.4,6.41,8.19,8.59,16.4a9.72,9.72,0,0,0,9.4,7.21h19.94a7.53,7.53,0,0,0,7.22-5.08c1.1-3.29-.15-6.93-3.6-10.51A7.9,7.9,0,0,1,124.21,160.21Z"/><path class="cls-5" d="M85.08,155l1.15-.09,1.19-.13c.79-.1,1.59-.21,2.39-.35s1.6-.28,2.4-.45l2.44-.5h0a.38.38,0,0,1,.45.3.37.37,0,0,1-.16.38,17.57,17.57,0,0,1-2.22,1.29c-.77.38-1.57.7-2.37,1a23.49,23.49,0,0,1-2.47.76c-.42.11-.84.21-1.27.3s-.84.16-1.33.21A1.37,1.37,0,0,1,85,155h.07Z"/><path class="cls-5" d="M65.56,157.67c-.49,0-.9-.13-1.33-.21s-.85-.19-1.27-.3a23.49,23.49,0,0,1-2.47-.76c-.8-.3-1.6-.62-2.37-1a17.57,17.57,0,0,1-2.22-1.29.38.38,0,0,1,.29-.68h0l2.44.5q1.2.25,2.4.45c.8.14,1.6.25,2.39.35l1.19.13,1.15.09h0a1.36,1.36,0,0,1-.18,2.72Z"/><path class="cls-5" d="M112.55,179.33l.09-.24a2.33,2.33,0,0,0,.11-.28c.07-.18.14-.38.2-.58.14-.39.25-.79.36-1.2a13,13,0,0,0,.37-2.5l0-.32c0-.1,0-.21,0-.32s0-.43,0-.64a9.79,9.79,0,0,0-.17-1.31c0-.22-.07-.45-.13-.66l-.18-.66c0-.23-.15-.44-.22-.66s-.16-.45-.23-.68v0a.18.18,0,0,1,.11-.22.19.19,0,0,1,.18,0,9.32,9.32,0,0,1,2.48,3.77c.09.25.15.5.22.76s.07.25.1.38l.07.38a10.15,10.15,0,0,1,0,3.16c0,.26-.09.52-.14.78s-.12.51-.2.77a7.51,7.51,0,0,1-.27.75c0,.13-.11.25-.16.38l-.1.19-.11.22a1.36,1.36,0,0,1-2.47-1.13Z"/><path class="cls-5" d="M121.85,179.33l.09-.24c0-.09.07-.18.1-.28s.14-.38.21-.58c.13-.39.24-.79.35-1.2a12.27,12.27,0,0,0,.37-2.5l0-.32c0-.1,0-.21,0-.32s0-.43,0-.64a11.78,11.78,0,0,0-.18-1.31,4.81,4.81,0,0,0-.13-.66l-.18-.66a5.11,5.11,0,0,0-.22-.66c-.08-.22-.15-.45-.23-.68v0a.18.18,0,0,1,.11-.22.17.17,0,0,1,.17,0,8.76,8.76,0,0,1,1.85,2.36,10,10,0,0,1,.64,1.41c.09.25.14.5.21.76s.07.25.1.38l.07.38a9.85,9.85,0,0,1,0,3.16c0,.26-.09.52-.13.78s-.13.51-.21.77a7.51,7.51,0,0,1-.27.75,3.08,3.08,0,0,1-.16.38l-.1.19-.11.22a1.36,1.36,0,0,1-2.47-1.13Z"/><path class="cls-5" d="M41.93,180.62l-.11-.22-.1-.19a3.08,3.08,0,0,1-.16-.38,7.51,7.51,0,0,1-.27-.75c-.08-.26-.14-.52-.21-.77s-.09-.52-.13-.78a10.15,10.15,0,0,1,0-3.16l.07-.38c0-.13.06-.26.1-.38s.12-.51.21-.76a10,10,0,0,1,.64-1.41,8.76,8.76,0,0,1,1.85-2.36.18.18,0,0,1,.25,0,.22.22,0,0,1,0,.17v0c-.08.23-.15.46-.23.68s-.17.43-.22.66l-.18.66a4.81,4.81,0,0,0-.13.66,9.79,9.79,0,0,0-.17,1.31c0,.21,0,.43,0,.64s0,.22,0,.32l0,.32a13,13,0,0,0,.37,2.5c.11.41.22.81.35,1.2.07.2.14.4.21.58a2.33,2.33,0,0,0,.11.28l.09.24.06.16a1.35,1.35,0,0,1-.78,1.75A1.37,1.37,0,0,1,41.93,180.62Z"/><path class="cls-5" d="M32.64,180.62l-.12-.22-.09-.19c-.06-.13-.12-.25-.17-.38s-.18-.5-.27-.75-.13-.52-.2-.77-.1-.52-.14-.78a10.15,10.15,0,0,1,.06-3.16l.07-.38c0-.13.06-.26.09-.38s.13-.51.22-.76a9.92,9.92,0,0,1,.63-1.41,8.79,8.79,0,0,1,1.86-2.36.17.17,0,0,1,.24,0,.16.16,0,0,1,0,.17v0c-.08.23-.15.46-.23.68a5.11,5.11,0,0,0-.22.66l-.18.66c-.07.21-.09.44-.14.66-.09.43-.12.88-.17,1.31,0,.21,0,.43,0,.64s0,.22,0,.32l0,.32a12.27,12.27,0,0,0,.37,2.5c.1.41.22.81.35,1.2.07.2.13.4.21.58s.07.19.1.28l.09.24.06.16a1.36,1.36,0,0,1-2.46,1.13Z"/><path class="cls-3" d="M104.16,94.46a70.8,70.8,0,0,1-48.92,6.11,54.46,54.46,0,0,1-17-6.92h0c-12-7.75-20.63-22-15.5-47.85,0,0-11.84-9.11-3.26-22.56s22.33-3.35,22.33-3.35,5.9-7.8,26.86-10.42S97.3,13,97.3,13h0a22.32,22.32,0,0,1,5.19-4.34c4.25-2.53,10.64-4.15,17.28,2.09,11.63,10.93,2.39,22.66,2.39,22.66C138.51,67.71,121.21,85.57,104.16,94.46Z"/><ellipse class="cls-6" cx="76.45" cy="71.54" rx="18.01" ry="16" transform="translate(-8.28 10.03) rotate(-7.12)"/><path class="cls-7" d="M24.8,27c3.61-5.18,7.69-4.51,10.15-3.37a1.92,1.92,0,0,1,.55,3.07A30,30,0,0,0,28.58,37a1.93,1.93,0,0,1-3.23.63C23.39,35.44,21.51,31.72,24.8,27Z"/><path class="cls-7" d="M115.54,15.9c-4.77-4.12-8.56-2.48-10.66-.77a1.92,1.92,0,0,0,.22,3.12,30.25,30.25,0,0,1,9.25,8.28,1.92,1.92,0,0,0,3.28-.18C119,23.75,119.9,19.68,115.54,15.9Z"/><path d="M74.75,57.88s-4.4.45-7.2,2.58a3.32,3.32,0,0,0-1,3.94c1,2.47,3.64,6.19,9.73,5.43s7.66-4.91,8.08-7.57a3.39,3.39,0,0,0-2.09-3.7A16.75,16.75,0,0,0,74.75,57.88Z"/><ellipse class="cls-6" cx="75.09" cy="60.62" rx="4.37" ry="1.02" transform="translate(-6.94 9.78) rotate(-7.12)"/><path class="cls-5" d="M71.48,103.83a72,72,0,0,1-16.55-1.93c-11.83-2.79-20.85-8-26.79-15.54-7.74-9.79-10-23.26-6.86-40.06C18.78,44,10.44,34.89,18.35,22.49c2.65-4.14,6-6.63,10.07-7.38,5.71-1.06,11,1.67,13.2,3,2.34-2.25,9.71-7.85,26.91-10h0C85.72,6,94.25,9.57,97.07,11.18,98.85,9.36,103.33,5.4,109.12,5c4.1-.26,8,1.31,11.58,4.67,10.71,10.07,4.87,20.94,3,23.79C130.94,49,132,62.62,126.93,74c-3.91,8.74-11.36,16-22.14,21.65A72,72,0,0,1,71.48,103.83ZM31.05,17.6a11.15,11.15,0,0,0-2.14.2c-3.26.61-6,2.68-8.26,6.16-3.29,5.16-3.8,10.21-1.51,15A17.18,17.18,0,0,0,23.6,44.7a1.37,1.37,0,0,1,.5,1.35c-7.17,36.14,13.15,48.87,31.46,53.2a69.34,69.34,0,0,0,48-6c16.68-8.69,33.23-26,17.39-59.3a1.37,1.37,0,0,1,.16-1.43c.35-.44,8.31-10.91-2.25-20.83-3-2.82-6.21-4.15-9.52-3.94-6.19.39-10.91,6-11,6.07a1.37,1.37,0,0,1-1.9.2c-.07,0-7.6-5.7-27.58-3.21h0c-20,2.5-25.9,9.83-26,9.9A1.36,1.36,0,0,1,41,21C41,21,36.33,17.6,31.05,17.6Z"/><path class="cls-6" d="M49.86,103.37a59.25,59.25,0,0,1,7,1.49c2.29.66,4.57,1.36,6.81,2.23a54.63,54.63,0,0,1,6.59,3,29.81,29.81,0,0,1,3.17,2,14,14,0,0,1,3,2.81h-3.2a22.29,22.29,0,0,1,5.2-4.89,31.31,31.31,0,0,1,6.11-3.21,45.61,45.61,0,0,1,6.46-2,44.9,44.9,0,0,1,6.61-1l-6,2.79c-2,.91-3.9,1.89-5.75,2.94a29.66,29.66,0,0,0-9.43,7.69,2,2,0,0,1-2.79.42,2,2,0,0,1-.36-.36l0-.06a12.38,12.38,0,0,0-2.15-2c-.86-.64-1.78-1.27-2.74-1.86-1.92-1.19-4-2.29-6-3.4s-4.12-2.19-6.21-3.26S51.94,104.56,49.86,103.37Z"/></g><g id="board"><path class="cls-8" d="M19.45,96.6l113-8.06,1.18,16.5-9.71,2.15,9.8-.79,2,28.08-11.21,1.93,11.4.28.1,1.49-6.56,1.68,6.72.49.48,6.66-113,8.06-1-14.89,17.33-.83-15-3.62,5.13-2.1-7.92-.77-1.61-22.53L30,108.18l-9.77-.31Z"/><path class="cls-9" d="M130.81,88.66l1.64-.12,1.18,16.5-3.83.84c.69-5.9.93-11.93,1-17.22Zm-1.1,18.07,4-.33,2,28.08-11.21,1.93,11.4.28.1,1.49-6.56,1.68,6.72.49.48,6.66-113,8.06-1-14.89,17.33-.83-15-3.62,5.13-2.1-7.92-.77-.21-2.53C37.2,132.22,106.37,140,119.4,132c6-3.72,9-14.18,10.31-25.27Z"/><path class="cls-10" d="M136.17,140.35l-6.72-.49,6.56-1.68-.1-1.49-11.4-.28,11.21-1.93-2-28.08-9.8.79,9.71-2.15-1.18-16.5-113,8.06.81,11.27,9.77.31-9.58,2.15,1.42,20h0l.21,2.53,7.92.77-5.13,2.1,15,3.62-17.33.83,1,14.89,113-8.06Z"/><path d="M55.94,111.37c.75.17,1.2.81,1.27,1.87.1,1.36-.33,2.05-1.22,2.12l-11.78.82c-.92.06-1.45-.6-1.55-2.07a1.63,1.63,0,0,1,1.05-1.88Zm-1.49,14.69a2.47,2.47,0,0,1,2.93,2.26l.58,8.23c.13,1.91-.69,2.93-2.45,3l-8.08.56a2.44,2.44,0,0,1-2.83-2.46L44,129.33c-.08-1.65.74-2.56,2.5-2.72Zm1.13-9.83c.75.17,1.16.81,1.23,1.84.09,1.32-.3,2-1.18,2l-10.47.73c-.88.06-1.37-.61-1.51-2a1.63,1.63,0,0,1,1-1.84Zm.29,4.74c.75.17,1.16.81,1.24,1.84.09,1.32-.31,2-1.19,2l-10.43.72c-.88.07-1.37-.6-1.51-2a1.65,1.65,0,0,1,1-1.85Zm-1.44-14.29c.75.17,1.2.8,1.27,1.87.1,1.36-.33,2-1.21,2.11l-9.7.68c-.88.06-1.41-.6-1.55-2.07a1.68,1.68,0,0,1,1-1.88Zm-1,24.62a1,1,0,0,0-.88-1l-3.34.24a.87.87,0,0,0-.8.76l.28,3.92a.81.81,0,0,0,.93.68l3.27-.23c.55,0,.82-.43.76-1.2Zm11-21.11-.21-2.94c-.07-1,.63-1.59,2.13-1.73s2.32.39,2.39,1.49l.2,2.86,6.17-.43q1.13.15,1.26,2.13c.1,1.51-.28,2.27-1.09,2.33l-6,.42.51,6.75,5.62-.39c.75.1,1.2.84,1.3,2.16.1,1.51-.29,2.27-1.13,2.33l-5.47.38.6,8.56,6.13-.43c.74.1,1.16.84,1.26,2.17s-.29,2.23-1.1,2.29L60.4,139.29c-1,.08-1.56-.7-1.67-2.24a2,2,0,0,1,1-2.17l6.43-.45-.6-8.56-5.29.37c-1,.07-1.56-.67-1.67-2.28a2,2,0,0,1,1-2.18l5.62-.39-.51-6.76-5.44.38c-1,.08-1.56-.66-1.67-2.28a1.89,1.89,0,0,1,1-2.14Z"/><path d="M112.31,103.23c1,0,1.71.69,2,2.07l.67,9.55,1.46-.1c.82.09,1.28.87,1.38,2.3.12,1.61-.31,2.42-1.19,2.48l-1.32.09.58,8.38c.18,3.53,0,5.6-.52,6.27-.56,1-1.81,1.57-3.78,1.78-3,.21-4.76-.45-5.16-2,0-1.36.22-2.15.64-2.4a2.48,2.48,0,0,1,1-.59,11.81,11.81,0,0,0,2.93.2c.43-.1.6-1.37.43-3.76l-.53-7.6-4.92.34.16,2.32c.14,6.71-.51,11.14-1.94,13.38a1.74,1.74,0,0,1-1.54,1.18,5,5,0,0,1-2-.75,1.94,1.94,0,0,1-.75-1.68q2.13-4.47,1.95-11.76l-.17-2.39-2.17.15.59,8.34c.17,3.53-.06,5.58-.75,6.25-.52,1-1.7,1.56-3.53,1.76q-4.35.31-4.9-2.09c0-1.36.21-2.16.64-2.41a2.54,2.54,0,0,1,1-.58,6.67,6.67,0,0,0,2.42.34c.59-.11.83-1.38.67-3.73L95.14,121l-4.63.33.17,2.42c.16,6.48-.39,10.73-1.65,12.85a1.7,1.7,0,0,1-1.54,1.21,5,5,0,0,1-2-.75,2,2,0,0,1-.74-1.68,27.76,27.76,0,0,0,1.64-11.26l-.17-2.5-1.1.08c-1.1.08-1.68-.73-1.8-2.42a2.1,2.1,0,0,1,1.1-2.33l1.47-.1-.69-9.77c0-1.14.61-1.85,2-2.09l9.32-.66c1,0,1.71.7,2,2.08l.66,9.51,2.17-.15-.69-9.81c0-1.14.61-1.85,2-2.09Zm-17.51,13-.42-6a1,1,0,0,0-.77-1l-3.38.24c-.37,0-.52.4-.48,1.06l.43,6.06Zm15.76-1.1-.42-6a1,1,0,0,0-.81-1l-3.64.26c-.37,0-.53.4-.48,1.06l.43,6.1Z"/><g class="cls-11"><path class="cls-5" d="M13.16,111.85l7.76,21.51c.07.18.14.35.22.51,1.13-1.46,7-1,10.28-5.38a5.24,5.24,0,0,0,1-2.48c.58-4.52-1.32-6.89-1.32-6.89a10.84,10.84,0,0,0-1.25-8,4.46,4.46,0,0,0-5.13-2.21,5,5,0,0,0-3.78-2C17.6,106.82,14.9,109.36,13.16,111.85Z"/></g><path class="cls-3" d="M11.2,119.65h0c1.07,8.83,9.6,12.9,9.6,12.9-1.62-3.37,5.48-1.37,9-6.76a5.8,5.8,0,0,0,.88-2.48,8.86,8.86,0,0,0-.74-4.42s.54-4.33-.65-6.59a5.93,5.93,0,0,0-4.59-3.36s-2-2.55-4.2-2.66c-4.66-.21-8,4.1-8.68,6.57A17,17,0,0,0,11.2,119.65Z"/><g class="cls-11"><path class="cls-5" d="M11.2,119.65c1.07,8.83,9.6,12.9,9.6,12.9-1.62-3.37,5.48-1.37,9-6.76a5.8,5.8,0,0,0,.88-2.48c-1.31,2-3.47,3.43-7,3.5C15.54,127,12.36,122.34,11.2,119.65Z"/></g><path class="cls-5" d="M20.33,133.54a20.77,20.77,0,0,1-6.32-5,16.55,16.55,0,0,1-3.23-16h0c.78-2.69,4.45-7.6,9.79-7.36,2.19.11,4,1.92,4.73,2.73a7.19,7.19,0,0,1,5,3.88c1.17,2.2.92,5.8.81,6.93.43,1.07,1.64,4.63-.35,7.67s-5.17,4-7.24,4.65a7.65,7.65,0,0,0-1.83.68,1.43,1.43,0,0,0,.13.35,1.13,1.13,0,0,1-.21,1.26,1.15,1.15,0,0,1-.75.32A1,1,0,0,1,20.33,133.54Zm1.34-1.86ZM12.9,113.15h0c-2.84,9.83,3.69,15.45,6.83,17.51.54-1,1.76-1.33,3.15-1.74,2-.57,4.41-1.29,6-3.74s.09-5.77.08-5.8a1.1,1.1,0,0,1-.1-.62c.13-1.11.31-4.34-.54-5.94A4.82,4.82,0,0,0,24.67,110a1.12,1.12,0,0,1-.82-.43c-.46-.59-2-2.16-3.39-2.23H20C16.17,107.5,13.46,111.19,12.9,113.15Z"/><g class="cls-11"><path class="cls-5" d="M139.86,116.64,134,96a5.48,5.48,0,0,0-.1-.56c-1.45,1.21.67,2.86-3.57,6.51-.78.66-5.06-.33-5.35.47-1.58,4.38-2.57-.41-2.57-.41s-3.5,8.21-2,12.87a7.1,7.1,0,0,0,4.36,4.61,4.38,4.38,0,0,0,3.32,2.82C134.17,123.3,136.68,120.09,139.86,116.64Z"/></g><path class="cls-3" d="M141.11,108.82h0c.57-9.06-7.25-14.73-7.25-14.73,1,3.69-5.74.36-10.3,5.12a5.62,5.62,0,0,0-1.34,2.32,9,9,0,0,0-.08,4.57s-1.35,4.26-.57,6.74a6,6,0,0,0,4,4.23s1.51,2.93,3.74,3.45c4.63,1.08,8.75-2.64,9.93-5A17.37,17.37,0,0,0,141.11,108.82Z"/><g class="cls-11"><path class="cls-5" d="M125.1,117.7c4.54,5.24,8.35,2.07,10.65,1.32a4.85,4.85,0,0,0,3-2.7c1.25-3.06,4.46-5.35,2.3-10.68a5.75,5.75,0,0,0-1.57-2.18c.9,2.24.86,4.91-1.13,7.91C133.77,118.31,128,118.29,125.1,117.7Z"/></g><path class="cls-5" d="M134.52,93.18a21.34,21.34,0,0,1,5.41,6.24,16.88,16.88,0,0,1,.29,16.62h0c-1.28,2.56-5.87,6.81-11.19,5.57-2.18-.51-3.68-2.67-4.25-3.61a7.35,7.35,0,0,1-4.28-4.82c-.76-2.42.15-6,.48-7.11-.25-1.15-.8-4.95,1.77-7.64s5.94-3.1,8.12-3.32a7.89,7.89,0,0,0,2-.35,1.73,1.73,0,0,0-.06-.38A1.11,1.11,0,0,1,134,93,1,1,0,0,1,134.52,93.18Zm-1.69,1.62ZM138.21,115h0c4.67-9.34-.85-16.2-3.62-18.84-.72.87-2,1-3.48,1.15-2.08.22-4.67.49-6.74,2.65s-1.16,5.78-1.15,5.81a1.08,1.08,0,0,1,0,.64c-.34,1.09-1.12,4.31-.56,6.07a5,5,0,0,0,3.16,3.47,1.08,1.08,0,0,1,.74.58c.36.68,1.59,2.54,3,2.86l.48.1C133.87,120.1,137.28,116.9,138.21,115Z"/></g><g id="lefteye"><ellipse cx="52.85" cy="51.83" rx="7.14" ry="5.62" transform="translate(-0.34 103.31) rotate(-88.5)"/><ellipse class="cls-6" cx="54.44" cy="50.67" rx="2.55" ry="2.01" transform="translate(2.36 103.77) rotate(-88.5)"/></g><g id="righteye"><ellipse cx="94.48" cy="46.63" rx="5.62" ry="7.14" transform="translate(-9.11 27.38) rotate(-15.74)"/><ellipse class="cls-6" cx="92.66" cy="45.9" rx="2.01" ry="2.55" transform="translate(-8.98 26.86) rotate(-15.74)"/></g></g></svg>